<svg id="SvgjsSvg1012" width="288" height="288" xmlns="http://www.w3.org/2000/svg" version="1.1" xmlns:xlink="http://www.w3.org/1999/xlink" xmlns:svgjs="http://svgjs.com/svgjs"><defs id="SvgjsDefs1013"></defs><g id="SvgjsG1014"><svg xmlns="http://www.w3.org/2000/svg" enable-background="new 0 0 24 24" viewBox="0 0 24 24" width="288" height="288"><path d="M2.999,19.5c-0.016,0-0.033-0.001-0.049-0.002c-0.948-0.094-2.78-0.821-2.928-2.909c-0.059-4.105,0.019-10.797,0.02-10.864C0.1,5.112,0.483,4.5,1.193,4.5h17.536c0.102,0.009,4.345,0.558,5.147,4.608c0.355,1.794-0.063,3.491-1.179,4.779c-1.194,1.378-3.066,2.151-5.193,2.161c-0.119,1.899-1.154,3.099-2.956,3.399C10.925,19.479,3,19.5,3,19.5C3,19.5,3,19.5,2.999,19.5z M18.67,5.496L1.193,5.5c-0.107,0-0.153,0.281-0.154,0.284c0.002,0.02-0.075,6.698-0.018,10.763c0.118,1.651,1.783,1.924,2.007,1.953c0.532-0.002,8.019-0.022,11.435-0.045c1.372-0.235,2.089-1.216,2.051-2.907c-0.003-0.139,0.052-0.272,0.152-0.369s0.238-0.153,0.375-0.141c2.029,0.1,3.814-0.552,4.901-1.805c0.91-1.05,1.249-2.446,0.955-3.932C22.233,5.957,18.706,5.501,18.67,5.496z M8.785,16.614c-0.114,0-0.237-0.024-0.36-0.084c-0.188-0.126-0.236-0.176-0.236-0.176c-0.097-0.092-0.342-0.309-0.663-0.592c-1.386-1.224-2.778-2.469-3.248-3.08C3.427,11.576,3.167,9.712,4.23,8.631h0c0.524-0.533,1.304-0.839,2.178-0.826c0.864,0.008,1.688,0.313,2.363,0.871c0.621-0.502,1.95-1.306,3.509-0.666c0.889,0.366,1.486,1.038,1.683,1.894c0.219,0.955-0.09,2.047-0.807,2.849c-1.201,1.34-3.779,3.59-3.888,3.685C9.161,16.538,8.986,16.614,8.785,16.614z M8.618,15.679c-0.006,0.005-0.012,0.01-0.018,0.016C8.602,15.692,8.607,15.688,8.618,15.679z M8.884,15.636h0.01H8.884z M4.943,9.332c-0.726,0.737-0.393,2.065,0.127,2.741c0.451,0.586,2.186,2.117,3.118,2.94c0.25,0.221,0.457,0.403,0.589,0.523c0.613-0.541,2.649-2.354,3.635-3.452c0.496-0.555,0.723-1.324,0.577-1.958c-0.124-0.538-0.5-0.949-1.088-1.192C10.419,8.33,9.149,9.68,9.137,9.692C9.042,9.796,8.916,9.875,8.769,9.854c-0.137,0-0.268-0.056-0.362-0.155C7.863,9.129,7.151,8.812,6.4,8.805C5.832,8.797,5.279,8.991,4.943,9.332L4.943,9.332z M17.691,13.408c-0.394,0-0.64-0.026-0.658-0.028c-0.253-0.028-0.445-0.242-0.445-0.497V7.682c0-0.276,0.224-0.5,0.5-0.5h1.696c0.043,0,0.087,0.006,0.129,0.017c0.782,0.209,2.26,1.083,2.26,2.898c0,1.67-0.782,2.76-2.326,3.238C18.398,13.392,18,13.408,17.691,13.408z M17.588,12.41c0.273,0.006,0.645-0.001,1.053-0.049c1.033-0.329,1.533-1.033,1.533-2.265c0-1.346-1.194-1.824-1.464-1.915h-1.121V12.41z" fill="#ffffff" class="color000 svgShape"></path></svg></g></svg>